<?xml version="1.0" encoding="UTF-8" standalone="no"?>
<svg
   width="46.404282"
   height="47.462494"
   viewBox="0 0 46.404281 47.462494"
   version="1.1"
   id="svg1"
   xml:space="preserve"
   xmlns="http://www.w3.org/2000/svg"
   xmlns:svg="http://www.w3.org/2000/svg"><defs
     id="defs1" /><g
     id="layer1"
     transform="translate(-90.931957,-210.52764)"><g
       id="g310"
       transform="matrix(6.1421567,0,0,5.5573237,-433.97931,-940.77616)"
       style="display:inline;fill:#fcb712;fill-opacity:1;fill-rule:evenodd"><g
         id="g311"
         style="fill:#fcb712;fill-opacity:1;fill-rule:evenodd"><path
           style="fill:#fcb712;fill-opacity:1;fill-rule:evenodd;stroke:none;stroke-width:0.0700042"
           d="m 88.080397,208.91886 c 0.873863,-0.37712 0.910056,-0.88932 0.910056,-1.75011 -0.303329,0.12574 -0.7668,0.31966 -0.909405,0.63738 -0.154122,0.34337 -0.01601,0.75513 -5.29e-4,1.11273 z"
           id="path2-8-4" /><path
           style="fill:#fcb712;fill-opacity:1;fill-rule:evenodd;stroke:none;stroke-width:0.0700042"
           d="m 89.270472,208.49883 c 0.0448,0.46296 0.0092,1.08847 0.32965,1.45514 0.386633,0.44228 0.911947,0.30233 1.420458,0.37989 0.436755,0.0666 0.884994,0.37393 1.182721,0.68794 0.151702,0.15996 0.349393,0.39157 0.346734,0.62723 -0.0034,0.30375 -0.381804,0.6432 -0.688004,0.56486 -0.439766,-0.11263 -0.252436,-0.74215 0.13861,-0.28484 0.151419,-0.22627 0.121666,-0.51169 -0.211344,-0.53108 -0.415266,-0.0242 -0.756118,0.33164 -0.678902,0.74109 0.02352,0.12454 0.07834,0.24263 0.160311,0.33966 0.587756,0.69598 1.981401,-0.42878 1.710134,-1.17971 -0.205253,-0.56832 -0.693533,-1.37766 -1.260287,-1.63441 -0.420867,-0.19068 -0.906206,-0.14246 -1.330013,-0.34413 -0.435567,-0.20728 -0.733086,-0.54909 -1.120068,-0.82164 m -0.210013,0.07 c -0.550516,0.66614 -1.434634,0.76473 -2.170136,1.12331 -0.354627,0.17289 -0.696725,0.48954 -0.967907,0.77307 -0.451353,0.47191 -0.508331,0.91505 -0.435637,1.53383 0.03582,0.30494 0.101339,0.67176 0.426564,0.79777 0.518425,0.20084 1.437617,-0.42528 1.295297,-1.0047 -0.0912,-0.3713 -0.642403,-0.45857 -0.906116,-0.21256 -0.118292,0.11036 -0.107336,0.27178 -0.112244,0.41949 0.133295,-0.0879 0.500266,-0.47042 0.597739,-0.12853 0.0607,0.21289 -0.200737,0.41471 -0.387943,0.43221 -0.399444,0.0372 -0.54215,-0.41793 -0.419108,-0.72343 0.550442,-1.36655 2.741999,-0.79025 3.06542,-2.38042 0.04501,-0.22111 0.09681,-0.418 0.01408,-0.63004 z"
           id="path12-5-9" /><path
           style="fill:#fcb712;fill-opacity:1;fill-rule:evenodd;stroke:none;stroke-width:0.0700042"
           d="m 89.200466,210.10893 c 0.0427,0.39989 -0.09941,0.88585 0.09226,1.25706 0.166751,0.32304 0.541206,0.39911 0.80309,0.61829 0.224295,0.18761 0.354502,0.46945 0.504732,0.71481 0.07567,-0.21099 0.0055,-0.40798 0.0055,-0.63003 7.2e-5,-0.27876 0.115859,-0.56732 0.01246,-0.84 -0.177742,-0.46878 -0.97936,-0.92465 -1.418079,-1.12013 z"
           id="path56-5-1" /><path
           style="fill:#fcb712;fill-opacity:1;fill-rule:evenodd;stroke:none;stroke-width:0.0700042"
           d="m 88.710436,210.17894 c -0.37815,0.37472 -0.738841,0.82601 -0.686056,1.40009 0.04433,0.48205 0.311427,0.90543 0.333277,1.40008 0.03965,0.89781 -0.117531,1.85771 0.142766,2.73017 0.212744,-0.28079 0.14813,-0.71117 0.256987,-1.05007 0.371862,-1.1585 0.368292,-2.16488 0.183761,-3.3602 -0.05621,-0.36411 -0.01926,-0.81054 -0.230735,-1.12007 z"
           id="path59-1-6" /><path
           style="fill:#fcb712;fill-opacity:1;fill-rule:evenodd;stroke:none;stroke-width:0.0700042"
           d="m 89.270472,211.99905 c 0.03948,0.36962 -0.09024,0.84054 0.135668,1.16704 0.178861,0.25839 0.582856,0.41618 0.844391,0.58307 -0.04312,-0.34862 0.06125,-0.80414 -0.102066,-1.11727 -0.173611,-0.33294 -0.568576,-0.45916 -0.877993,-0.63284 z"
           id="path152-0-8" /></g></g></g></svg>
